<svg xmlns="http://www.w3.org/2000/svg" width="1280" height="620" viewBox="0 0 1280 620"><defs><linearGradient id="a" x1="0" x2="1" y1="0" y2="1"><stop stop-color="#05050b"/><stop offset=".55" stop-color="#120d28"/><stop offset="1" stop-color="#062235"/></linearGradient><linearGradient id="b" x1="0" x2="1" y1="0" y2="1"><stop stop-color="#17d9ff"/><stop offset=".55" stop-color="#8b5cf6"/><stop offset="1" stop-color="#ff4fd8"/></linearGradient></defs><rect width="1280" height="620" fill="url(#a)" rx="34"/><path stroke="#fff" d="M0 100h1280M0 200h1280M0 300h1280M0 400h1280M0 500h1280M160 0v620M320 0v620M480 0v620M640 0v620M800 0v620M960 0v620M1120 0v620" opacity=".12"/><text x="70" y="76" fill="#17d9ff" font-family="Arial" font-size="24" font-weight="900" letter-spacing="6">PRODUCT ARCHITECTURE</text><text x="70" y="130" fill="#fff" font-family="Arial" font-size="48" font-weight="900">One studio layer above local AI chaos</text><path stroke="url(#b)" stroke-width="4" d="M640 318 250 210m390 108 390-108M640 318 240 455m400-137 400 137M640 318V178m0 140v187" opacity=".65"/><circle cx="640" cy="318" r="110" fill="rgba(139,92,246,.24)" stroke="url(#b)" stroke-width="5"/><circle cx="640" cy="318" r="46" fill="url(#b)"/><text x="640" y="311" fill="#fff" font-family="Arial" font-size="25" font-weight="900" text-anchor="middle">OBSID</text><text x="640" y="340" fill="#dfe7ff" font-family="Arial" font-size="15" text-anchor="middle">creative OS</text><g fill="rgba(255,255,255,.08)" stroke="rgba(255,255,255,.16)"><rect width="310" height="105" x="92" y="150" rx="24"/><rect width="310" height="105" x="878" y="150" rx="24"/><rect width="330" height="105" x="82" y="400" rx="24"/><rect width="330" height="105" x="870" y="400" rx="24"/><rect width="280" height="95" x="500" y="100" rx="24"/><rect width="280" height="95" x="500" y="455" rx="24"/></g><g fill="#fff" font-family="Arial" font-size="24" font-weight="900" text-anchor="middle"><text x="247" y="195">Local engines</text><text x="1033" y="195">Agents and MCP</text><text x="247" y="445">Workflow vault</text><text x="1035" y="445">Outputs memory</text><text x="640" y="145">ORBYSS</text><text x="640" y="500">Generator Store</text></g><g fill="#aeb4cc" font-family="Arial" font-size="17" text-anchor="middle"><text x="247" y="224">ComfyUI · Forge · LM Studio · TTS</text><text x="1033" y="224">plan · sort · diagnose · act</text><text x="247" y="474">prompts · styles · presets · chains</text><text x="1035" y="474">assets · proofs · projects · exports</text><text x="640" y="174">living state interface</text><text x="640" y="529">reusable commercial generators</text></g></svg>