<svg xmlns="http://www.w3.org/2000/svg" width="1280" height="420" viewBox="0 0 1280 420"><defs><linearGradient id="a" x1="0" x2="1" y1="0" y2="1"><stop stop-color="#05050b"/><stop offset=".45" stop-color="#100a25"/><stop offset="1" stop-color="#062235"/></linearGradient><linearGradient id="d" x1="0" x2="1" y1="0" y2="1"><stop stop-color="#17d9ff"/><stop offset=".55" stop-color="#8b5cf6"/><stop offset="1" stop-color="#ff4fd8"/></linearGradient><radialGradient id="b" cx="50%" cy="50%" r="62%"><stop stop-color="#fff"/><stop offset=".22" stop-color="#17d9ff"/><stop offset=".58" stop-color="#8b5cf6"/><stop offset="1" stop-color="#ff4fd8" stop-opacity="0"/></radialGradient><filter id="c"><feGaussianBlur result="b" stdDeviation="9"/><feMerge><feMergeNode in="b"/><feMergeNode in="SourceGraphic"/></feMerge></filter></defs><rect width="1280" height="420" fill="url(#a)" rx="32"/><path stroke="#fff" d="M0 70h1280M0 140h1280M0 210h1280M0 280h1280M0 350h1280M100 0v420M200 0v420M300 0v420M400 0v420M500 0v420M600 0v420M700 0v420M800 0v420M900 0v420M1000 0v420M1100 0v420M1200 0v420" opacity=".16"/><circle cx="990" cy="210" r="190" fill="url(#b)" opacity=".68"/><g filter="url(#c)"><path fill="rgba(139,92,246,.18)" stroke="url(#d)" stroke-width="4" d="m990 58 70 102 132-32-92 110 80 118-138-26-56 72-44-96-150 38 108-114-82-104 130 26Z"/><circle cx="990" cy="220" r="70" fill="url(#b)" stroke="rgba(255,255,255,.5)"/><circle cx="990" cy="220" r="18" fill="#fff"/></g><g stroke="url(#d)" stroke-width="3" opacity=".5"><path d="M990 220C850 175 810 95 745 50"/><path d="M990 220c130-60 195-142 255-178"/><path d="M990 220c135 72 205 130 260 188"/><path d="M990 220c-130 80-205 136-285 178"/></g><text x="70" y="88" fill="#17d9ff" font-family="Arial, sans-serif" font-size="24" font-weight="900" letter-spacing="7">LOCAL AI CREATIVE OS</text><text x="70" y="172" fill="#fff" font-family="Arial, sans-serif" font-size="70" font-weight="900">OBSID-Studio</text><text x="74" y="232" fill="#dce6ff" font-family="Arial, sans-serif" font-size="30" font-weight="700">A premium cockpit for local AI engines,</text><text x="74" y="272" fill="#dce6ff" font-family="Arial, sans-serif" font-size="30" font-weight="700">workflows, outputs and living agents.</text><g transform="translate(70 325)"><rect width="132" height="40" fill="rgba(255,255,255,.10)" stroke="rgba(255,255,255,.18)" rx="20"/><text x="66" y="26" fill="#fff" font-family="Arial" font-size="15" font-weight="900" text-anchor="middle">IMAGE</text><rect width="120" height="40" x="148" fill="rgba(255,255,255,.10)" stroke="rgba(255,255,255,.18)" rx="20"/><text x="208" y="26" fill="#fff" font-family="Arial" font-size="15" font-weight="900" text-anchor="middle">VIDEO</text><rect width="120" height="40" x="284" fill="rgba(255,255,255,.10)" stroke="rgba(255,255,255,.18)" rx="20"/><text x="344" y="26" fill="#fff" font-family="Arial" font-size="15" font-weight="900" text-anchor="middle">VOICE</text><rect width="154" height="40" x="420" fill="url(#d)" rx="20"/><text x="497" y="26" fill="#fff" font-family="Arial" font-size="15" font-weight="900" text-anchor="middle">ORBYSS CORE</text></g></svg>