<svg xmlns="http://www.w3.org/2000/svg" width="1280" height="640" viewBox="0 0 1280 640"><defs><linearGradient id="a" x1="0" x2="1" y1="0" y2="1"><stop stop-color="#05050b"/><stop offset=".55" stop-color="#120b2b"/><stop offset="1" stop-color="#052033"/></linearGradient><linearGradient id="b" x1="0" x2="1" y1="0" y2="1"><stop stop-color="#17d9ff"/><stop offset=".5" stop-color="#8b5cf6"/><stop offset="1" stop-color="#ff4fd8"/></linearGradient></defs><rect width="1280" height="640" fill="url(#a)" rx="34"/><rect width="1160" height="520" x="60" y="60" fill="rgba(6,6,18,.82)" stroke="rgba(255,255,255,.16)" rx="34"/><rect width="1096" height="66" x="92" y="92" fill="rgba(255,255,255,.06)" rx="22"/><circle cx="128" cy="125" r="15" fill="#17d9ff"/><text x="162" y="133" fill="#fff" font-family="Arial" font-size="24" font-weight="900">OBSID-Studio Preview</text><rect width="470" height="330" x="100" y="198" fill="rgba(255,255,255,.05)" stroke="rgba(255,255,255,.12)" rx="28"/><text x="136" y="258" fill="#17d9ff" font-family="Arial" font-size="18" font-weight="900" letter-spacing="5">LOCAL AI CREATIVE OS</text><text x="136" y="330" fill="#fff" font-family="Arial" font-size="56" font-weight="900">The studio layer</text><text x="136" y="392" fill="#fff" font-family="Arial" font-size="56" font-weight="900">for local AI.</text><text x="138" y="444" fill="#aeb4cc" font-family="Arial" font-size="22">engines · workflows · outputs · agents</text><rect width="180" height="46" x="138" y="474" fill="url(#b)" rx="23"/><text x="228" y="504" fill="#fff" font-family="Arial" font-size="16" font-weight="900" text-anchor="middle">OPEN PREVIEW</text><rect width="560" height="330" x="620" y="198" fill="rgba(255,255,255,.05)" stroke="rgba(255,255,255,.12)" rx="28"/><text x="656" y="250" fill="#fff" font-family="Arial" font-size="26" font-weight="900">Product Map</text><path stroke="url(#b)" stroke-width="4" d="m900 365-150-70m150 70 150-70m-150 70-150 85m150-85 150 85m-150-85V265m0 100v125" opacity=".65"/><circle cx="900" cy="365" r="74" fill="rgba(139,92,246,.24)" stroke="url(#b)" stroke-width="5"/><circle cx="900" cy="365" r="30" fill="url(#b)"/><g fill="rgba(255,255,255,.08)" stroke="rgba(255,255,255,.14)"><rect width="150" height="62" x="680" y="260" rx="16"/><rect width="150" height="62" x="970" y="260" rx="16"/><rect width="150" height="62" x="680" y="420" rx="16"/><rect width="150" height="62" x="970" y="420" rx="16"/></g><g fill="#fff" font-family="Arial" font-size="16" font-weight="900" text-anchor="middle"><text x="755" y="296">Engines</text><text x="1045" y="296">Agents</text><text x="755" y="456">Workflows</text><text x="1045" y="456">Outputs</text></g></svg>