<svg xmlns="http://www.w3.org/2000/svg" width="1280" height="720" viewBox="0 0 1280 720"><defs><linearGradient id="a" x1="0" x2="1" y1="0" y2="1"><stop stop-color="#05050b"/><stop offset=".52" stop-color="#100a25"/><stop offset="1" stop-color="#052235"/></linearGradient><linearGradient id="d" x1="0" x2="1" y1="0" y2="1"><stop stop-color="#17d9ff"/><stop offset=".55" stop-color="#8b5cf6"/><stop offset="1" stop-color="#ff4fd8"/></linearGradient><radialGradient id="c" cx="50%" cy="50%" r="60%"><stop stop-color="#fff"/><stop offset=".18" stop-color="#17d9ff"/><stop offset=".45" stop-color="#8b5cf6"/><stop offset=".78" stop-color="#ff4fd8"/><stop offset="1" stop-color="#ff4fd8" stop-opacity="0"/></radialGradient><filter id="b"><feGaussianBlur result="b" stdDeviation="9"/><feMerge><feMergeNode in="b"/><feMergeNode in="SourceGraphic"/></feMerge></filter></defs><rect width="1280" height="720" fill="url(#a)" rx="34"/><path stroke="#fff" d="M0 90h1280M0 180h1280M0 270h1280M0 360h1280M0 450h1280M0 540h1280M0 630h1280M120 0v720M240 0v720M360 0v720M480 0v720M600 0v720M720 0v720M840 0v720M960 0v720M1080 0v720M1200 0v720" opacity=".14"/><rect width="1196" height="636" x="42" y="42" fill="rgba(6,6,18,.86)" stroke="rgba(255,255,255,.15)" rx="34"/><rect width="1140" height="62" x="70" y="70" fill="rgba(255,255,255,.055)" stroke="rgba(255,255,255,.1)" rx="22"/><circle cx="106" cy="101" r="15" fill="#17d9ff"/><text x="136" y="97" fill="#fff" font-family="Arial" font-size="22" font-weight="900">OBSID-Studio</text><text x="136" y="119" fill="#aeb4cc" font-family="Arial" font-size="13" font-weight="700">Local AI Creative OS</text><text x="1010" y="106" fill="#64ffc0" font-family="Arial" font-size="15" font-weight="900">LOCAL STACK ONLINE</text><rect width="210" height="480" x="70" y="158" fill="rgba(255,255,255,.055)" stroke="rgba(255,255,255,.1)" rx="24"/><g font-family="Arial" font-size="15" font-weight="900"><text x="100" y="205" fill="#fff">COCKPIT</text><text x="100" y="254" fill="#aeb4cc">CREATE</text><text x="100" y="303" fill="#aeb4cc">WORKFLOWS</text><text x="100" y="352" fill="#aeb4cc">OUTPUTS</text><text x="100" y="401" fill="#aeb4cc">ENGINES</text><text x="100" y="450" fill="#aeb4cc">GENERATOR STORE</text></g><rect width="164" height="38" x="92" y="184" fill="rgba(139,92,246,.35)" stroke="rgba(255,255,255,.12)" rx="14"/><rect width="600" height="480" x="310" y="158" fill="rgba(255,255,255,.04)" stroke="rgba(255,255,255,.1)" rx="26"/><text x="340" y="198" fill="#17d9ff" font-family="Arial" font-size="18" font-weight="900" letter-spacing="4">ORBYSS CREATIVE CORE</text><text x="340" y="228" fill="#aeb4cc" font-family="Arial" font-size="17">living state · creative reactor · project memory</text><g filter="url(#b)"><circle cx="610" cy="370" r="150" fill="url(#c)" opacity=".72"/><path fill="rgba(139,92,246,.14)" stroke="url(#d)" stroke-width="4" d="m610 175 85 130 145-43-98 128 82 156-156-44-60 130-60-130-158 44 90-156-100-128 145 43Z"/><circle cx="610" cy="370" r="38" fill="#fff"/></g><g stroke="url(#d)" stroke-width="3" opacity=".52"><path d="M610 370c-140-60-180-160-260-200"/><path d="M610 370c150-70 210-155 280-200"/><path d="M610 370c150 80 210 170 285 255"/><path d="M610 370C480 470 410 548 335 620"/></g><rect width="270" height="480" x="940" y="158" fill="rgba(255,255,255,.055)" stroke="rgba(255,255,255,.1)" rx="24"/><text x="970" y="202" fill="#fff" font-family="Arial" font-size="18" font-weight="900">Engine Health</text><g font-family="Arial" font-size="15"><rect width="210" height="46" x="970" y="225" fill="rgba(100,255,192,.11)" stroke="rgba(100,255,192,.28)" rx="14"/><text x="988" y="253" fill="#fff" font-weight="900">ComfyUI</text><text x="1130" y="253" fill="#64ffc0" font-weight="900">READY</text><rect width="210" height="46" x="970" y="285" fill="rgba(100,255,192,.09)" stroke="rgba(100,255,192,.22)" rx="14"/><text x="988" y="313" fill="#fff" font-weight="900">LM Studio</text><text x="1130" y="313" fill="#64ffc0" font-weight="900">READY</text><rect width="210" height="46" x="970" y="345" fill="rgba(255,209,102,.09)" stroke="rgba(255,209,102,.25)" rx="14"/><text x="988" y="373" fill="#fff" font-weight="900">Forge</text><text x="1122" y="373" fill="#ffd166" font-weight="900">START</text><rect width="210" height="46" x="970" y="405" fill="rgba(100,255,192,.09)" stroke="rgba(100,255,192,.22)" rx="14"/><text x="988" y="433" fill="#fff" font-weight="900">Kokoro</text><text x="1130" y="433" fill="#64ffc0" font-weight="900">READY</text></g><text x="970" y="500" fill="#fff" font-family="Arial" font-size="18" font-weight="900">Output Memory</text><rect width="210" height="72" x="970" y="520" fill="rgba(255,255,255,.06)" stroke="rgba(255,255,255,.1)" rx="16"/><text x="990" y="550" fill="#aeb4cc" font-family="Arial" font-size="15">projects · prompts · proofs</text><rect width="530" height="44" x="340" y="565" fill="rgba(255,255,255,.07)" stroke="rgba(255,255,255,.12)" rx="16"/><text x="365" y="593" fill="#dfe7ff" font-family="Arial" font-size="16">Décris ton idée, ton univers, ton projet...</text><rect width="74" height="32" x="780" y="571" fill="url(#d)" rx="12"/><text x="817" y="592" fill="#fff" font-family="Arial" font-size="13" font-weight="900" text-anchor="middle">RUN</text></svg>