<svg xmlns="http://www.w3.org/2000/svg" width="1280" height="620" viewBox="0 0 1280 620"><defs><linearGradient id="bg" x1="0" y1="0" x2="1" y2="1"><stop stop-color="#05050b"/><stop offset=".55" stop-color="#120d28"/><stop offset="1" stop-color="#062235"/></linearGradient><linearGradient id="g" x1="0" y1="0" x2="1" y2="1"><stop stop-color="#17d9ff"/><stop offset=".55" stop-color="#8b5cf6"/><stop offset="1" stop-color="#ff4fd8"/></linearGradient></defs><rect width="1280" height="620" rx="34" fill="url(#bg)"/><g opacity=".12" stroke="#fff"><path d="M0 100H1280M0 200H1280M0 300H1280M0 400H1280M0 500H1280M160 0V620M320 0V620M480 0V620M640 0V620M800 0V620M960 0V620M1120 0V620"/></g><text x="70" y="76" fill="#17d9ff" font-family="Arial" font-size="24" font-weight="900" letter-spacing="6">PRODUCT ARCHITECTURE</text><text x="70" y="130" fill="#fff" font-family="Arial" font-size="48" font-weight="900">One studio layer above local AI chaos</text><g stroke="url(#g)" stroke-width="4" opacity=".65"><path d="M640 318L250 210M640 318L1030 210M640 318L240 455M640 318L1040 455M640 318L640 178M640 318L640 505"/></g><circle cx="640" cy="318" r="110" fill="rgba(139,92,246,.24)" stroke="url(#g)" stroke-width="5"/><circle cx="640" cy="318" r="46" fill="url(#g)"/><text x="640" y="311" fill="#fff" text-anchor="middle" font-family="Arial" font-size="25" font-weight="900">OBSID</text><text x="640" y="340" fill="#dfe7ff" text-anchor="middle" font-family="Arial" font-size="15">creative OS</text><g fill="rgba(255,255,255,.08)" stroke="rgba(255,255,255,.16)"><rect x="92" y="150" width="310" height="105" rx="24"/><rect x="878" y="150" width="310" height="105" rx="24"/><rect x="82" y="400" width="330" height="105" rx="24"/><rect x="870" y="400" width="330" height="105" rx="24"/><rect x="500" y="100" width="280" height="95" rx="24"/><rect x="500" y="455" width="280" height="95" rx="24"/></g><g font-family="Arial" fill="#fff" font-weight="900" font-size="24"><text x="247" y="195" text-anchor="middle">Local engines</text><text x="1033" y="195" text-anchor="middle">Agents and MCP</text><text x="247" y="445" text-anchor="middle">Workflow vault</text><text x="1035" y="445" text-anchor="middle">Outputs memory</text><text x="640" y="145" text-anchor="middle">ORBYSS</text><text x="640" y="500" text-anchor="middle">Generator Store</text></g><g font-family="Arial" fill="#aeb4cc" font-size="17"><text x="247" y="224" text-anchor="middle">ComfyUI · Forge · LM Studio · TTS</text><text x="1033" y="224" text-anchor="middle">plan · sort · diagnose · act</text><text x="247" y="474" text-anchor="middle">prompts · styles · presets · chains</text><text x="1035" y="474" text-anchor="middle">assets · proofs · projects · exports</text><text x="640" y="174" text-anchor="middle">living state interface</text><text x="640" y="529" text-anchor="middle">reusable commercial generators</text></g></svg>