<svg xmlns="http://www.w3.org/2000/svg" width="1280" height="640" viewBox="0 0 1280 640"><defs><linearGradient id="bg" x1="0" y1="0" x2="1" y2="1"><stop stop-color="#05050b"/><stop offset=".55" stop-color="#120b2b"/><stop offset="1" stop-color="#052033"/></linearGradient><linearGradient id="g" x1="0" y1="0" x2="1" y2="1"><stop stop-color="#17d9ff"/><stop offset=".5" stop-color="#8b5cf6"/><stop offset="1" stop-color="#ff4fd8"/></linearGradient></defs><rect width="1280" height="640" rx="34" fill="url(#bg)"/><rect x="60" y="60" width="1160" height="520" rx="34" fill="rgba(6,6,18,.82)" stroke="rgba(255,255,255,.16)"/><rect x="92" y="92" width="1096" height="66" rx="22" fill="rgba(255,255,255,.06)"/><circle cx="128" cy="125" r="15" fill="#17d9ff"/><text x="162" y="133" fill="#fff" font-family="Arial" font-size="24" font-weight="900">OBSID-Studio Preview</text><rect x="100" y="198" width="470" height="330" rx="28" fill="rgba(255,255,255,.05)" stroke="rgba(255,255,255,.12)"/><text x="136" y="258" fill="#17d9ff" font-family="Arial" font-size="18" font-weight="900" letter-spacing="5">LOCAL AI CREATIVE OS</text><text x="136" y="330" fill="#fff" font-family="Arial" font-size="56" font-weight="900">The studio layer</text><text x="136" y="392" fill="#fff" font-family="Arial" font-size="56" font-weight="900">for local AI.</text><text x="138" y="444" fill="#aeb4cc" font-family="Arial" font-size="22">engines · workflows · outputs · agents</text><rect x="138" y="474" width="180" height="46" rx="23" fill="url(#g)"/><text x="228" y="504" fill="#fff" font-family="Arial" font-size="16" font-weight="900" text-anchor="middle">OPEN PREVIEW</text><rect x="620" y="198" width="560" height="330" rx="28" fill="rgba(255,255,255,.05)" stroke="rgba(255,255,255,.12)"/><text x="656" y="250" fill="#fff" font-family="Arial" font-size="26" font-weight="900">Product Map</text><g stroke="url(#g)" stroke-width="4" opacity=".65"><path d="M900 365L750 295M900 365L1050 295M900 365L750 450M900 365L1050 450M900 365L900 265M900 365L900 490"/></g><circle cx="900" cy="365" r="74" fill="rgba(139,92,246,.24)" stroke="url(#g)" stroke-width="5"/><circle cx="900" cy="365" r="30" fill="url(#g)"/><g fill="rgba(255,255,255,.08)" stroke="rgba(255,255,255,.14)"><rect x="680" y="260" width="150" height="62" rx="16"/><rect x="970" y="260" width="150" height="62" rx="16"/><rect x="680" y="420" width="150" height="62" rx="16"/><rect x="970" y="420" width="150" height="62" rx="16"/></g><g fill="#fff" font-family="Arial" font-size="16" font-weight="900"><text x="755" y="296" text-anchor="middle">Engines</text><text x="1045" y="296" text-anchor="middle">Agents</text><text x="755" y="456" text-anchor="middle">Workflows</text><text x="1045" y="456" text-anchor="middle">Outputs</text></g></svg>