<svg xmlns="http://www.w3.org/2000/svg" width="1280" height="420" viewBox="0 0 1280 420">
  <defs>
    <linearGradient id="bg" x1="0" y1="0" x2="1" y2="1">
      <stop stop-color="#05050b"/>
      <stop offset="0.45" stop-color="#100a25"/>
      <stop offset="1" stop-color="#062235"/>
    </linearGradient>
    <linearGradient id="edge" x1="0" y1="0" x2="1" y2="1">
      <stop stop-color="#17d9ff"/>
      <stop offset="0.55" stop-color="#8b5cf6"/>
      <stop offset="1" stop-color="#ff4fd8"/>
    </linearGradient>
    <radialGradient id="orb" cx="50%" cy="50%" r="62%">
      <stop stop-color="#ffffff"/>
      <stop offset="0.22" stop-color="#17d9ff"/>
      <stop offset="0.58" stop-color="#8b5cf6"/>
      <stop offset="1" stop-color="#ff4fd8" stop-opacity="0"/>
    </radialGradient>
    <filter id="glow"><feGaussianBlur stdDeviation="9" result="b"/><feMerge><feMergeNode in="b"/><feMergeNode in="SourceGraphic"/></feMerge></filter>
  </defs>
  <rect width="1280" height="420" rx="32" fill="url(#bg)"/>
  <g opacity="0.16" stroke="#fff"><path d="M0 70H1280M0 140H1280M0 210H1280M0 280H1280M0 350H1280M100 0V420M200 0V420M300 0V420M400 0V420M500 0V420M600 0V420M700 0V420M800 0V420M900 0V420M1000 0V420M1100 0V420M1200 0V420"/></g>
  <circle cx="990" cy="210" r="190" fill="url(#orb)" opacity="0.68"/>
  <g filter="url(#glow)">
    <path d="M990 58L1060 160L1192 128L1100 238L1180 356L1042 330L986 402L942 306L792 344L900 230L818 126L948 152Z" fill="rgba(139,92,246,.18)" stroke="url(#edge)" stroke-width="4"/>
    <circle cx="990" cy="220" r="70" fill="url(#orb)" stroke="rgba(255,255,255,.5)"/>
    <circle cx="990" cy="220" r="18" fill="#fff"/>
  </g>
  <g stroke="url(#edge)" stroke-width="3" opacity="0.5">
    <path d="M990 220C850 175 810 95 745 50"/>
    <path d="M990 220C1120 160 1185 78 1245 42"/>
    <path d="M990 220C1125 292 1195 350 1250 408"/>
    <path d="M990 220C860 300 785 356 705 398"/>
  </g>
  <text x="70" y="88" fill="#17d9ff" font-family="Arial, sans-serif" font-size="24" font-weight="900" letter-spacing="7">LOCAL AI CREATIVE OS</text>
  <text x="70" y="172" fill="#ffffff" font-family="Arial, sans-serif" font-size="70" font-weight="900">OBSID-Studio</text>
  <text x="74" y="232" fill="#dce6ff" font-family="Arial, sans-serif" font-size="30" font-weight="700">A premium cockpit for local AI engines,</text>
  <text x="74" y="272" fill="#dce6ff" font-family="Arial, sans-serif" font-size="30" font-weight="700">workflows, outputs and living agents.</text>
  <g transform="translate(70 325)">
    <rect width="132" height="40" rx="20" fill="rgba(255,255,255,.10)" stroke="rgba(255,255,255,.18)"/>
    <text x="66" y="26" fill="#fff" font-family="Arial" font-size="15" font-weight="900" text-anchor="middle">IMAGE</text>
    <rect x="148" width="120" height="40" rx="20" fill="rgba(255,255,255,.10)" stroke="rgba(255,255,255,.18)"/>
    <text x="208" y="26" fill="#fff" font-family="Arial" font-size="15" font-weight="900" text-anchor="middle">VIDEO</text>
    <rect x="284" width="120" height="40" rx="20" fill="rgba(255,255,255,.10)" stroke="rgba(255,255,255,.18)"/>
    <text x="344" y="26" fill="#fff" font-family="Arial" font-size="15" font-weight="900" text-anchor="middle">VOICE</text>
    <rect x="420" width="154" height="40" rx="20" fill="url(#edge)"/>
    <text x="497" y="26" fill="#fff" font-family="Arial" font-size="15" font-weight="900" text-anchor="middle">ORBYSS CORE</text>
  </g>
</svg>
