<svg xmlns="http://www.w3.org/2000/svg" width="1280" height="280" viewBox="0 0 1280 280"><defs><linearGradient id="bg" x1="0" y1="0" x2="1" y2="1"><stop stop-color="#05050b"/><stop offset="1" stop-color="#061d2e"/></linearGradient><linearGradient id="g" x1="0" y1="0" x2="1" y2="1"><stop stop-color="#17d9ff"/><stop offset=".55" stop-color="#8b5cf6"/><stop offset="1" stop-color="#ff4fd8"/></linearGradient><style>@keyframes p{0%{opacity:.28}50%{opacity:1}100%{opacity:.28}}@keyframes m{0%{transform:translateX(0)}100%{transform:translateX(112px)}}.pulse{animation:p 2.4s infinite}.move{animation:m 3s infinite linear}</style></defs><rect width="1280" height="280" rx="30" fill="url(#bg)"/><text x="60" y="72" fill="#17d9ff" font-family="Arial" font-size="21" font-weight="900" letter-spacing="6">SELF MANAGEMENT LOOP</text><g transform="translate(58 125)"><g fill="rgba(255,255,255,.08)" stroke="rgba(255,255,255,.15)"><rect width="160" height="70" rx="22"/><rect x="205" width="160" height="70" rx="22"/><rect x="410" width="160" height="70" rx="22"/><rect x="615" width="160" height="70" rx="22"/><rect x="820" width="160" height="70" rx="22"/><rect x="1025" width="160" height="70" rx="22"/></g><g fill="#fff" font-family="Arial" font-size="18" font-weight="900"><text x="80" y="43" text-anchor="middle">OBSERVE</text><text x="285" y="43" text-anchor="middle">ANALYZE</text><text x="490" y="43" text-anchor="middle">PREDICT</text><text x="695" y="43" text-anchor="middle">ADAPT</text><text x="900" y="43" text-anchor="middle">ACT</text><text x="1105" y="43" text-anchor="middle">LEARN</text></g><g stroke="url(#g)" stroke-width="5" stroke-linecap="round"><path d="M170 35H195"/><path d="M375 35H400"/><path d="M580 35H605"/><path d="M785 35H810"/><path d="M990 35H1015"/></g><circle class="pulse move" cx="170" cy="35" r="8" fill="#17d9ff"/></g><text x="60" y="240" fill="#aeb4cc" font-family="Arial" font-size="22">OBSID-Studio should observe the local stack, analyze blockers, adapt workflows and ship reusable outputs.</text></svg>