<svg xmlns="http://www.w3.org/2000/svg" width="1280" height="720" viewBox="0 0 1280 720">
  <defs>
    <linearGradient id="bg" x1="0" y1="0" x2="1" y2="1"><stop stop-color="#05050b"/><stop offset=".52" stop-color="#100a25"/><stop offset="1" stop-color="#052235"/></linearGradient>
    <linearGradient id="g" x1="0" y1="0" x2="1" y2="1"><stop stop-color="#17d9ff"/><stop offset=".55" stop-color="#8b5cf6"/><stop offset="1" stop-color="#ff4fd8"/></linearGradient>
    <radialGradient id="orb" cx="50%" cy="50%" r="60%"><stop stop-color="#fff"/><stop offset=".18" stop-color="#17d9ff"/><stop offset=".45" stop-color="#8b5cf6"/><stop offset=".78" stop-color="#ff4fd8"/><stop offset="1" stop-color="#ff4fd8" stop-opacity="0"/></radialGradient>
    <filter id="glow"><feGaussianBlur stdDeviation="9" result="b"/><feMerge><feMergeNode in="b"/><feMergeNode in="SourceGraphic"/></feMerge></filter>
  </defs>
  <rect width="1280" height="720" rx="34" fill="url(#bg)"/>
  <g opacity=".14" stroke="#fff"><path d="M0 90H1280M0 180H1280M0 270H1280M0 360H1280M0 450H1280M0 540H1280M0 630H1280M120 0V720M240 0V720M360 0V720M480 0V720M600 0V720M720 0V720M840 0V720M960 0V720M1080 0V720M1200 0V720"/></g>
  <rect x="42" y="42" width="1196" height="636" rx="34" fill="rgba(6,6,18,.86)" stroke="rgba(255,255,255,.15)"/>
  <rect x="70" y="70" width="1140" height="62" rx="22" fill="rgba(255,255,255,.055)" stroke="rgba(255,255,255,.1)"/>
  <circle cx="106" cy="101" r="15" fill="#17d9ff"/>
  <text x="136" y="97" fill="#fff" font-family="Arial" font-size="22" font-weight="900">OBSID-Studio</text>
  <text x="136" y="119" fill="#aeb4cc" font-family="Arial" font-size="13" font-weight="700">Local AI Creative OS</text>
  <text x="1010" y="106" fill="#64ffc0" font-family="Arial" font-size="15" font-weight="900">LOCAL STACK ONLINE</text>
  <rect x="70" y="158" width="210" height="480" rx="24" fill="rgba(255,255,255,.055)" stroke="rgba(255,255,255,.1)"/>
  <g font-family="Arial" font-size="15" font-weight="900"><text x="100" y="205" fill="#fff">COCKPIT</text><text x="100" y="254" fill="#aeb4cc">CREATE</text><text x="100" y="303" fill="#aeb4cc">WORKFLOWS</text><text x="100" y="352" fill="#aeb4cc">OUTPUTS</text><text x="100" y="401" fill="#aeb4cc">ENGINES</text><text x="100" y="450" fill="#aeb4cc">GENERATOR STORE</text></g>
  <rect x="92" y="184" width="164" height="38" rx="14" fill="rgba(139,92,246,.35)" stroke="rgba(255,255,255,.12)"/>
  <rect x="310" y="158" width="600" height="480" rx="26" fill="rgba(255,255,255,.04)" stroke="rgba(255,255,255,.1)"/>
  <text x="340" y="198" fill="#17d9ff" font-family="Arial" font-size="18" font-weight="900" letter-spacing="4">ORBYSS CREATIVE CORE</text>
  <text x="340" y="228" fill="#aeb4cc" font-family="Arial" font-size="17">living state · creative reactor · project memory</text>
  <g filter="url(#glow)">
    <circle cx="610" cy="370" r="150" fill="url(#orb)" opacity=".72"/>
    <path d="M610 175 695 305 840 262 742 390 824 546 668 502 608 632 548 502 390 546 480 390 380 262 525 305Z" fill="rgba(139,92,246,.14)" stroke="url(#g)" stroke-width="4"/>
    <circle cx="610" cy="370" r="38" fill="#fff"/>
  </g>
  <g stroke="url(#g)" stroke-width="3" opacity=".52"><path d="M610 370C470 310 430 210 350 170"/><path d="M610 370C760 300 820 215 890 170"/><path d="M610 370C760 450 820 540 895 625"/><path d="M610 370C480 470 410 548 335 620"/></g>
  <rect x="940" y="158" width="270" height="480" rx="24" fill="rgba(255,255,255,.055)" stroke="rgba(255,255,255,.1)"/>
  <text x="970" y="202" fill="#fff" font-family="Arial" font-size="18" font-weight="900">Engine Health</text>
  <g font-family="Arial" font-size="15"><rect x="970" y="225" width="210" height="46" rx="14" fill="rgba(100,255,192,.11)" stroke="rgba(100,255,192,.28)"/><text x="988" y="253" fill="#fff" font-weight="900">ComfyUI</text><text x="1130" y="253" fill="#64ffc0" font-weight="900">READY</text><rect x="970" y="285" width="210" height="46" rx="14" fill="rgba(100,255,192,.09)" stroke="rgba(100,255,192,.22)"/><text x="988" y="313" fill="#fff" font-weight="900">LM Studio</text><text x="1130" y="313" fill="#64ffc0" font-weight="900">READY</text><rect x="970" y="345" width="210" height="46" rx="14" fill="rgba(255,209,102,.09)" stroke="rgba(255,209,102,.25)"/><text x="988" y="373" fill="#fff" font-weight="900">Forge</text><text x="1122" y="373" fill="#ffd166" font-weight="900">START</text><rect x="970" y="405" width="210" height="46" rx="14" fill="rgba(100,255,192,.09)" stroke="rgba(100,255,192,.22)"/><text x="988" y="433" fill="#fff" font-weight="900">Kokoro</text><text x="1130" y="433" fill="#64ffc0" font-weight="900">READY</text></g>
  <text x="970" y="500" fill="#fff" font-family="Arial" font-size="18" font-weight="900">Output Memory</text>
  <rect x="970" y="520" width="210" height="72" rx="16" fill="rgba(255,255,255,.06)" stroke="rgba(255,255,255,.1)"/>
  <text x="990" y="550" fill="#aeb4cc" font-family="Arial" font-size="15">projects · prompts · proofs</text>
  <rect x="340" y="565" width="530" height="44" rx="16" fill="rgba(255,255,255,.07)" stroke="rgba(255,255,255,.12)"/>
  <text x="365" y="593" fill="#dfe7ff" font-family="Arial" font-size="16">Décris ton idée, ton univers, ton projet...</text>
  <rect x="780" y="571" width="74" height="32" rx="12" fill="url(#g)"/>
  <text x="817" y="592" text-anchor="middle" fill="#fff" font-family="Arial" font-size="13" font-weight="900">RUN</text>
</svg>